<mxfile host="app.diagrams.net" modified="2022-11-26T13:45:40.355Z" agent="5.0 (Windows NT 10.0; Win64; x64) AppleWebKit/537.36 (KHTML, like Gecko) Chrome/106.0.0.0 Safari/537.36 OPR/92.0.0.0" version="20.6.0" etag="BcNcgcQq_R1FYcMNU1Cp" type="github">
  <diagram id="9NnHlD7LQdHkYfbFnIvx" name="Page-1">
    <mxGraphModel dx="831" dy="516" grid="1" gridSize="10" guides="1" tooltips="1" connect="1" arrows="1" fold="1" page="1" pageScale="1" pageWidth="850" pageHeight="1100" math="0" shadow="0">
      <root>
        <mxCell id="0" />
        <mxCell id="1" parent="0" />
        <mxCell id="vnLy-YtIVP53wOikU4eS-1" value="Cập nhật mặt hàng" style="ellipse;whiteSpace=wrap;html=1;aspect=fixed;" vertex="1" parent="1">
          <mxGeometry x="400" y="240" width="100" height="100" as="geometry" />
        </mxCell>
        <mxCell id="vnLy-YtIVP53wOikU4eS-9" style="edgeStyle=orthogonalEdgeStyle;rounded=0;orthogonalLoop=1;jettySize=auto;html=1;entryX=0.75;entryY=0;entryDx=0;entryDy=0;exitX=0.5;exitY=0;exitDx=0;exitDy=0;" edge="1" parent="1" source="vnLy-YtIVP53wOikU4eS-2" target="vnLy-YtIVP53wOikU4eS-8">
          <mxGeometry relative="1" as="geometry" />
        </mxCell>
        <mxCell id="vnLy-YtIVP53wOikU4eS-2" value="Xuất Menu" style="ellipse;whiteSpace=wrap;html=1;aspect=fixed;" vertex="1" parent="1">
          <mxGeometry x="630" y="110" width="80" height="80" as="geometry" />
        </mxCell>
        <mxCell id="vnLy-YtIVP53wOikU4eS-6" style="edgeStyle=orthogonalEdgeStyle;rounded=0;orthogonalLoop=1;jettySize=auto;html=1;entryX=0.5;entryY=1;entryDx=0;entryDy=0;" edge="1" parent="1" source="vnLy-YtIVP53wOikU4eS-3" target="vnLy-YtIVP53wOikU4eS-2">
          <mxGeometry relative="1" as="geometry" />
        </mxCell>
        <mxCell id="vnLy-YtIVP53wOikU4eS-7" style="edgeStyle=orthogonalEdgeStyle;rounded=0;orthogonalLoop=1;jettySize=auto;html=1;exitX=0.25;exitY=0;exitDx=0;exitDy=0;entryX=0.636;entryY=0.008;entryDx=0;entryDy=0;entryPerimeter=0;startArrow=classic;startFill=1;" edge="1" parent="1" source="vnLy-YtIVP53wOikU4eS-3" target="vnLy-YtIVP53wOikU4eS-1">
          <mxGeometry relative="1" as="geometry" />
        </mxCell>
        <mxCell id="vnLy-YtIVP53wOikU4eS-24" style="edgeStyle=orthogonalEdgeStyle;rounded=0;orthogonalLoop=1;jettySize=auto;html=1;exitX=0.5;exitY=1;exitDx=0;exitDy=0;startArrow=none;startFill=0;" edge="1" parent="1" source="vnLy-YtIVP53wOikU4eS-3" target="vnLy-YtIVP53wOikU4eS-19">
          <mxGeometry relative="1" as="geometry" />
        </mxCell>
        <mxCell id="vnLy-YtIVP53wOikU4eS-25" value="Công thức chế biến" style="edgeLabel;html=1;align=center;verticalAlign=middle;resizable=0;points=[];" vertex="1" connectable="0" parent="vnLy-YtIVP53wOikU4eS-24">
          <mxGeometry x="0.1506" y="-1" relative="1" as="geometry">
            <mxPoint as="offset" />
          </mxGeometry>
        </mxCell>
        <mxCell id="vnLy-YtIVP53wOikU4eS-3" value="Mặt hàng" style="shape=partialRectangle;whiteSpace=wrap;html=1;left=0;right=0;fillColor=none;" vertex="1" parent="1">
          <mxGeometry x="610" y="280" width="120" height="60" as="geometry" />
        </mxCell>
        <mxCell id="vnLy-YtIVP53wOikU4eS-8" value="Menu" style="shape=partialRectangle;whiteSpace=wrap;html=1;left=0;right=0;fillColor=none;" vertex="1" parent="1">
          <mxGeometry x="450" y="80" width="120" height="60" as="geometry" />
        </mxCell>
        <mxCell id="vnLy-YtIVP53wOikU4eS-12" style="edgeStyle=orthogonalEdgeStyle;rounded=0;orthogonalLoop=1;jettySize=auto;html=1;exitX=0.5;exitY=1;exitDx=0;exitDy=0;entryX=0;entryY=0;entryDx=0;entryDy=0;startArrow=classic;startFill=1;" edge="1" parent="1" source="vnLy-YtIVP53wOikU4eS-11" target="vnLy-YtIVP53wOikU4eS-1">
          <mxGeometry relative="1" as="geometry" />
        </mxCell>
        <mxCell id="vnLy-YtIVP53wOikU4eS-11" value="Hàng nhập" style="shape=partialRectangle;whiteSpace=wrap;html=1;left=0;right=0;fillColor=none;" vertex="1" parent="1">
          <mxGeometry x="270" y="80" width="120" height="60" as="geometry" />
        </mxCell>
        <mxCell id="vnLy-YtIVP53wOikU4eS-15" style="edgeStyle=orthogonalEdgeStyle;rounded=0;orthogonalLoop=1;jettySize=auto;html=1;exitX=0.5;exitY=1;exitDx=0;exitDy=0;entryX=-0.004;entryY=0.688;entryDx=0;entryDy=0;entryPerimeter=0;startArrow=classic;startFill=1;" edge="1" parent="1" source="vnLy-YtIVP53wOikU4eS-14" target="vnLy-YtIVP53wOikU4eS-1">
          <mxGeometry relative="1" as="geometry" />
        </mxCell>
        <mxCell id="vnLy-YtIVP53wOikU4eS-16" value="Cập nhật món mới" style="edgeLabel;html=1;align=center;verticalAlign=middle;resizable=0;points=[];" vertex="1" connectable="0" parent="vnLy-YtIVP53wOikU4eS-15">
          <mxGeometry x="0.143" y="-3" relative="1" as="geometry">
            <mxPoint x="56" y="-2" as="offset" />
          </mxGeometry>
        </mxCell>
        <mxCell id="vnLy-YtIVP53wOikU4eS-17" style="edgeStyle=orthogonalEdgeStyle;rounded=0;orthogonalLoop=1;jettySize=auto;html=1;exitX=0.75;exitY=1;exitDx=0;exitDy=0;entryX=0;entryY=0.5;entryDx=0;entryDy=0;startArrow=classic;startFill=1;" edge="1" parent="1" source="vnLy-YtIVP53wOikU4eS-14" target="vnLy-YtIVP53wOikU4eS-1">
          <mxGeometry relative="1" as="geometry" />
        </mxCell>
        <mxCell id="vnLy-YtIVP53wOikU4eS-18" value="cập nhật công thức" style="edgeLabel;html=1;align=center;verticalAlign=middle;resizable=0;points=[];" vertex="1" connectable="0" parent="vnLy-YtIVP53wOikU4eS-17">
          <mxGeometry x="0.121" y="3" relative="1" as="geometry">
            <mxPoint x="52" y="3" as="offset" />
          </mxGeometry>
        </mxCell>
        <mxCell id="vnLy-YtIVP53wOikU4eS-20" style="edgeStyle=orthogonalEdgeStyle;rounded=0;orthogonalLoop=1;jettySize=auto;html=1;exitX=0.25;exitY=1;exitDx=0;exitDy=0;entryX=0;entryY=0.5;entryDx=0;entryDy=0;startArrow=none;startFill=0;" edge="1" parent="1" source="vnLy-YtIVP53wOikU4eS-14" target="vnLy-YtIVP53wOikU4eS-19">
          <mxGeometry relative="1" as="geometry" />
        </mxCell>
        <mxCell id="vnLy-YtIVP53wOikU4eS-21" value="Order món" style="edgeLabel;html=1;align=center;verticalAlign=middle;resizable=0;points=[];" vertex="1" connectable="0" parent="vnLy-YtIVP53wOikU4eS-20">
          <mxGeometry x="0.3928" relative="1" as="geometry">
            <mxPoint as="offset" />
          </mxGeometry>
        </mxCell>
        <mxCell id="vnLy-YtIVP53wOikU4eS-14" value="Bộ phận bếp" style="rounded=0;whiteSpace=wrap;html=1;" vertex="1" parent="1">
          <mxGeometry x="90" y="60" width="120" height="60" as="geometry" />
        </mxCell>
        <mxCell id="vnLy-YtIVP53wOikU4eS-23" style="edgeStyle=orthogonalEdgeStyle;rounded=0;orthogonalLoop=1;jettySize=auto;html=1;exitX=1;exitY=0.5;exitDx=0;exitDy=0;entryX=0;entryY=0.5;entryDx=0;entryDy=0;startArrow=none;startFill=0;" edge="1" parent="1" source="vnLy-YtIVP53wOikU4eS-19" target="vnLy-YtIVP53wOikU4eS-22">
          <mxGeometry relative="1" as="geometry" />
        </mxCell>
        <mxCell id="vnLy-YtIVP53wOikU4eS-19" value="Chế biến" style="ellipse;whiteSpace=wrap;html=1;aspect=fixed;" vertex="1" parent="1">
          <mxGeometry x="410" y="390" width="80" height="80" as="geometry" />
        </mxCell>
        <mxCell id="vnLy-YtIVP53wOikU4eS-22" value="Đầu bếp" style="rounded=0;whiteSpace=wrap;html=1;" vertex="1" parent="1">
          <mxGeometry x="620" y="400" width="120" height="60" as="geometry" />
        </mxCell>
      </root>
    </mxGraphModel>
  </diagram>
</mxfile>
